<?xml version="1.0" encoding="utf-8"?>
<!-- Generator: Adobe Illustrator 27.9.0, SVG Export Plug-In . SVG Version: 6.00 Build 0)  -->
<svg version="1.1" id="Capa_1" xmlns="http://www.w3.org/2000/svg" xmlns:xlink="http://www.w3.org/1999/xlink" x="0px" y="0px"
	 viewBox="0 0 560.79 94.33" style="enable-background:new 0 0 560.79 94.33;" xml:space="preserve">
<style type="text/css">
	.st0{fill:#3F6BAC;}
	.st1{fill:#050006;}
</style>
<g>
	<g>
		<g>
			<g>
				<path class="st0" d="M224.74,61.96c-0.23-0.14-0.47-0.26-0.73-0.36c-0.66-0.26-1.4-0.39-2.21-0.39c-0.82,0-1.56,0.13-2.22,0.39
					c-0.66,0.26-1.23,0.65-1.7,1.14c-0.47,0.49-0.83,1.1-1.08,1.79c-0.25,0.69-0.38,1.48-0.38,2.33c0,0.86,0.13,1.64,0.38,2.34
					c0.25,0.69,0.61,1.3,1.08,1.79c0.47,0.49,1.04,0.87,1.7,1.14c0.66,0.26,1.4,0.39,2.22,0.39c0.81,0,1.55-0.13,2.21-0.39
					c0.25-0.1,0.49-0.22,0.73-0.36v0.73h2.55V56.89h-2.55V61.96z M223.99,64.06c0.49,0.66,0.73,1.6,0.73,2.81
					c0,1.2-0.25,2.14-0.73,2.8c-0.48,0.65-1.2,0.97-2.18,0.97c-1,0-1.73-0.32-2.21-0.97c-0.49-0.65-0.74-1.6-0.74-2.8
					c0-1.2,0.25-2.15,0.74-2.81c0.49-0.66,1.21-0.97,2.21-0.97C222.78,63.08,223.51,63.41,223.99,64.06z"/>
				<path class="st0" d="M237.64,62.5c-0.42-0.42-0.91-0.74-1.48-0.96c-0.56-0.22-1.19-0.33-1.85-0.33c-0.79,0-1.52,0.14-2.16,0.42
					c-0.64,0.28-1.19,0.67-1.63,1.16c-0.44,0.49-0.79,1.07-1.02,1.73c-0.24,0.66-0.36,1.37-0.36,2.12c0,0.94,0.13,1.78,0.39,2.51
					c0.26,0.73,0.63,1.34,1.1,1.84c0.47,0.49,1.04,0.87,1.68,1.13c0.64,0.25,1.34,0.38,2.1,0.38c0.39,0,0.8-0.03,1.2-0.1
					c0.4-0.06,0.8-0.17,1.18-0.3c0.38-0.14,0.74-0.32,1.08-0.54c0.33-0.21,0.63-0.47,0.89-0.77l0.06-0.07l-0.92-1.56l-0.12,0.13
					c-0.6,0.61-1.57,0.99-1.94,1.13l-0.1,0.04c-0.32,0.1-0.71,0.15-1.14,0.15c-0.47,0-0.89-0.08-1.27-0.22
					c-0.37-0.15-0.7-0.37-0.97-0.67c-0.27-0.3-0.49-0.68-0.64-1.14c-0.14-0.42-0.23-0.93-0.26-1.49h6.88c0.24,0,0.41-0.08,0.5-0.22
					c0.09-0.14,0.13-0.36,0.13-0.71c0-0.77-0.12-1.48-0.35-2.09C238.38,63.44,238.05,62.92,237.64,62.5z M236.84,65.53h-5.31
					c0.14-0.78,0.44-1.4,0.88-1.85c0.47-0.47,1.12-0.71,1.94-0.71c0.4,0,0.76,0.07,1.06,0.2c0.3,0.13,0.57,0.32,0.78,0.56
					c0.22,0.24,0.37,0.52,0.48,0.85C236.78,64.87,236.83,65.19,236.84,65.53z"/>
			</g>
			<g>
				<path class="st0" d="M265.89,62.74c-0.46-0.49-1.03-0.88-1.69-1.14c-0.66-0.26-1.4-0.39-2.21-0.39c-0.82,0-1.56,0.13-2.22,0.39
					c-0.66,0.26-1.23,0.65-1.7,1.14c-0.47,0.49-0.83,1.1-1.08,1.79c-0.25,0.69-0.38,1.48-0.38,2.33c0,0.86,0.13,1.64,0.38,2.34
					c0.25,0.69,0.61,1.3,1.08,1.79c0.47,0.49,1.04,0.87,1.7,1.14c0.66,0.26,1.4,0.39,2.22,0.39c0.81,0,1.55-0.13,2.21-0.39
					c0.66-0.26,1.23-0.65,1.69-1.14c0.46-0.49,0.82-1.09,1.07-1.79c0.25-0.69,0.37-1.48,0.37-2.34c0-0.85-0.13-1.64-0.37-2.33
					C266.71,63.83,266.36,63.23,265.89,62.74z M264.91,66.87c0,1.2-0.25,2.14-0.73,2.8c-0.48,0.65-1.2,0.97-2.18,0.97
					c-1,0-1.73-0.32-2.21-0.97c-0.49-0.65-0.74-1.6-0.74-2.8c0-1.2,0.25-2.15,0.74-2.81c0.49-0.66,1.21-0.97,2.21-0.97
					c0.97,0,1.71,0.33,2.18,0.97C264.66,64.72,264.91,65.66,264.91,66.87z"/>
				<path class="st0" d="M253.98,64.83c-0.35-0.3-0.75-0.55-1.2-0.75c-0.43-0.19-0.88-0.37-1.34-0.52l-0.12-0.04
					c-0.42-0.14-0.82-0.27-1.22-0.39c-0.42-0.13-0.8-0.29-1.14-0.48c-0.32-0.18-0.59-0.4-0.79-0.64c-0.19-0.24-0.28-0.54-0.28-0.92
					c0-0.29,0.06-0.57,0.16-0.82c0.11-0.25,0.27-0.47,0.48-0.65c0.21-0.19,0.48-0.34,0.8-0.44c0.32-0.11,0.7-0.16,1.13-0.16
					c0.46,0,0.86,0.06,1.18,0.16c0.33,0.11,0.62,0.24,0.85,0.37c0.24,0.14,0.44,0.27,0.6,0.38c0.37,0.26,0.69,0.23,0.89,0.09
					c0.09-0.07,0.18-0.17,0.26-0.3l0.6-1.15l-0.07-0.07c-0.54-0.51-1.19-0.91-1.93-1.18c-0.73-0.27-1.55-0.41-2.42-0.41
					c-0.78,0-1.49,0.12-2.1,0.36c-0.61,0.24-1.13,0.56-1.55,0.95c-0.42,0.4-0.75,0.86-0.96,1.37c-0.22,0.51-0.33,1.05-0.33,1.6
					c0,0.68,0.11,1.27,0.32,1.74c0.22,0.47,0.5,0.87,0.86,1.18c0.35,0.31,0.75,0.56,1.2,0.76c0.43,0.19,0.89,0.36,1.35,0.5
					c0.46,0.14,0.9,0.28,1.33,0.41c0.42,0.13,0.81,0.29,1.14,0.47s0.58,0.4,0.78,0.66c0.19,0.25,0.28,0.59,0.28,0.99
					c0,0.37-0.06,0.71-0.19,1.01c-0.13,0.3-0.31,0.56-0.55,0.77c-0.24,0.21-0.54,0.38-0.89,0.49c-0.36,0.12-0.77,0.18-1.22,0.18
					c-0.56,0-1.04-0.07-1.42-0.22c-0.39-0.15-0.73-0.31-1.01-0.49c-0.29-0.18-0.53-0.35-0.72-0.5c-0.39-0.31-0.72-0.31-0.97-0.15
					c-0.1,0.06-0.19,0.14-0.27,0.25l-0.71,1.15l0.07,0.08c0.29,0.3,0.62,0.58,0.99,0.82c0.37,0.25,0.77,0.46,1.18,0.63
					c0.42,0.17,0.87,0.31,1.34,0.4c0.47,0.09,0.96,0.14,1.46,0.14c0.83,0,1.58-0.13,2.24-0.38c0.66-0.25,1.22-0.6,1.67-1.04
					c0.45-0.44,0.8-0.97,1.04-1.56c0.24-0.59,0.36-1.23,0.36-1.9c0-0.63-0.11-1.18-0.33-1.63
					C254.62,65.51,254.33,65.13,253.98,64.83z"/>
				<path class="st0" d="M299.9,61.37c-0.13,0.1-0.22,0.22-0.27,0.37l-1.99,6.75c-0.07,0.28-0.13,0.56-0.19,0.82
					c-0.01,0.05-0.02,0.11-0.03,0.16c-0.02-0.06-0.03-0.12-0.05-0.18c-0.07-0.26-0.15-0.53-0.23-0.81l-2.11-6.79
					c-0.04-0.15-0.13-0.27-0.26-0.37c-0.13-0.09-0.28-0.14-0.47-0.14h-0.91c-0.17,0-0.32,0.05-0.44,0.14
					c-0.12,0.09-0.21,0.22-0.25,0.36l-2.17,6.79c-0.08,0.27-0.15,0.54-0.23,0.8c-0.02,0.06-0.04,0.13-0.05,0.19
					c-0.01-0.06-0.02-0.12-0.03-0.18c-0.05-0.26-0.11-0.53-0.17-0.81l-1.95-6.75c-0.05-0.15-0.14-0.28-0.27-0.37
					c-0.13-0.1-0.3-0.14-0.49-0.14h-1.83l3.55,11.16l0.03,0.09h1.68c0.21,0,0.48-0.09,0.59-0.49l2.31-7.13
					c0.05-0.16,0.1-0.33,0.14-0.5c0.04,0.16,0.08,0.32,0.14,0.48l2.28,7.15c0.11,0.41,0.35,0.5,0.53,0.5h1.76l3.57-11.25h-1.75
					C300.19,61.23,300.03,61.28,299.9,61.37z"/>
				<path class="st0" d="M311.17,65.24l-0.01-0.17l0,0c-0.03-0.52-0.1-0.96-0.23-1.34c-0.17-0.51-0.43-0.96-0.77-1.33
					c-0.34-0.37-0.76-0.66-1.25-0.87c-0.49-0.21-1.06-0.31-1.69-0.31c-0.86,0-1.66,0.15-2.38,0.43c-0.72,0.28-1.4,0.72-2.01,1.3
					l-0.08,0.07l0.43,0.75c0.07,0.12,0.17,0.22,0.28,0.31c0.27,0.21,0.69,0.19,1.04-0.05c0.17-0.11,0.36-0.23,0.58-0.37
					c0.21-0.13,0.47-0.25,0.78-0.36c0.29-0.11,0.66-0.16,1.1-0.16c0.63,0,1.11,0.19,1.44,0.55c0.2,0.23,0.38,0.47,0.42,0.98v1.38
					c-1.15,0.04-2.14,0.15-2.94,0.33c-0.85,0.2-1.56,0.46-2.09,0.77c-0.54,0.32-0.94,0.68-1.18,1.09c-0.24,0.41-0.37,0.84-0.37,1.28
					c0,0.49,0.08,0.93,0.25,1.3c0.17,0.37,0.4,0.69,0.69,0.94c0.29,0.25,0.63,0.44,1.02,0.56c0.38,0.12,0.8,0.18,1.24,0.18
					c0.41,0,0.79-0.04,1.14-0.11c0.35-0.07,0.67-0.18,0.97-0.32c0.3-0.14,0.59-0.31,0.87-0.5c0.13-0.09,0.26-0.2,0.39-0.3v1.21h2.36
					l0.01-7.07c0-0.04,0-0.07-0.01-0.11C311.18,65.28,311.17,65.26,311.17,65.24z M308.81,67.62v1.96c-0.19,0.2-0.36,0.34-0.51,0.46
					c-0.21,0.16-0.42,0.3-0.65,0.41c-0.22,0.11-0.47,0.2-0.72,0.26c-0.45,0.11-1.04,0.13-1.49,0.01c-0.19-0.05-0.35-0.13-0.49-0.24
					c-0.14-0.11-0.25-0.25-0.32-0.42c-0.08-0.18-0.12-0.38-0.12-0.63c0-0.25,0.07-0.48,0.22-0.68c0.15-0.21,0.4-0.39,0.75-0.55
					c0.35-0.16,0.83-0.29,1.41-0.39C307.41,67.71,308.06,67.65,308.81,67.62z"/>
				<path class="st0" d="M329.07,66.85c0.09-0.14,0.13-0.36,0.13-0.71c0-0.77-0.12-1.48-0.35-2.09c-0.23-0.61-0.56-1.14-0.97-1.55
					c-0.42-0.42-0.91-0.74-1.48-0.96c-0.56-0.22-1.19-0.33-1.85-0.33c-0.79,0-1.52,0.14-2.16,0.42c-0.64,0.28-1.19,0.67-1.63,1.16
					c-0.44,0.49-0.79,1.07-1.02,1.73c-0.24,0.66-0.36,1.37-0.36,2.12c0,0.94,0.13,1.78,0.39,2.51c0.26,0.73,0.63,1.35,1.1,1.84
					c0.47,0.49,1.04,0.87,1.68,1.13c0.64,0.25,1.34,0.38,2.1,0.38c0.39,0,0.8-0.03,1.2-0.1c0.4-0.06,0.8-0.17,1.18-0.3
					c0.38-0.13,0.74-0.31,1.08-0.54c0.33-0.21,0.63-0.47,0.89-0.77l0.06-0.07l-0.92-1.56l-0.12,0.13c-0.6,0.61-1.57,0.99-1.94,1.13
					l-0.1,0.04c-0.32,0.1-0.71,0.15-1.15,0.15c-0.47,0-0.89-0.08-1.27-0.22c-0.37-0.15-0.7-0.37-0.97-0.67
					c-0.27-0.3-0.49-0.68-0.64-1.14c-0.14-0.42-0.23-0.93-0.26-1.49h6.88C328.8,67.07,328.97,67,329.07,66.85z M327.07,65.53h-5.31
					c0.14-0.78,0.44-1.4,0.88-1.85c0.47-0.47,1.12-0.71,1.94-0.71c0.4,0,0.76,0.07,1.06,0.2c0.3,0.13,0.56,0.32,0.78,0.56
					c0.21,0.24,0.37,0.52,0.48,0.85C327,64.87,327.06,65.19,327.07,65.53z"/>
				<path class="st0" d="M318.99,61.38c-0.06-0.03-0.12-0.06-0.2-0.08c-0.22-0.06-0.46-0.08-0.7-0.08c-0.72,0-1.34,0.21-1.85,0.64
					c-0.34,0.28-0.64,0.64-0.93,1.09V61.2h-2.36v11.15l0.02,0.13h2.35v-6.61c0.02-0.35,0.27-0.88,0.42-1.14
					c0.15-0.26,0.32-0.48,0.51-0.66c0.19-0.17,0.4-0.31,0.64-0.4c0.24-0.09,0.52-0.13,0.84-0.13c0.22,0,0.42,0.02,0.61,0.06
					c0.38,0.08,0.56,0.1,0.75-0.03l0.06-0.04v-2.07l-0.08-0.03C319.04,61.41,319.02,61.4,318.99,61.38z"/>
				<path class="st0" d="M273.05,56.89c-0.6,0-1.14,0.09-1.62,0.27c-0.48,0.18-0.9,0.44-1.24,0.79c-0.34,0.35-0.61,0.77-0.79,1.26
					c-0.18,0.49-0.28,1.05-0.28,1.68v0.32h-2.09v1.9h2.09v9.38h2.36l-0.05-9.38h3.11v-1.9h-3.12l0-0.25c0-0.43,0.05-0.79,0.14-1.06
					c0.09-0.28,0.23-0.5,0.39-0.67c0.18-0.18,0.42-0.3,0.71-0.37c0.13-0.03,0.27-0.04,0.42-0.06l0.03,0
					c0.63-0.02,1.25,0.19,1.25,0.19l0.18,0.06v-1.9l-0.09-0.03C274.02,56.96,273.55,56.89,273.05,56.89z"/>
				<path class="st0" d="M282.43,70.58l-0.06-0.01c-0.14-0.01-0.28-0.02-0.4-0.05c-0.28-0.07-0.52-0.19-0.7-0.37
					c-0.17-0.17-0.3-0.39-0.39-0.67c-0.09-0.28-0.14-0.63-0.14-1.06l0.03-5.33h3.09v-1.9h-3.08l0.02-4.31h-2.36v4.31h-2.09v1.9h2.09
					v5.39c0,0.63,0.09,1.19,0.28,1.67c0.18,0.49,0.45,0.91,0.79,1.26c0.34,0.35,0.76,0.61,1.24,0.79c0.47,0.18,1.02,0.27,1.62,0.27
					c0.51,0,0.98-0.07,1.4-0.22l0.09-0.03v-1.9l-0.18,0.06C283.67,70.4,283.08,70.61,282.43,70.58z"/>
			</g>
			<g>
				<path class="st0" d="M164.59,65.24l-0.01-0.17l0,0c-0.03-0.52-0.1-0.96-0.23-1.34c-0.17-0.51-0.43-0.96-0.77-1.33
					c-0.34-0.37-0.76-0.66-1.25-0.87c-0.49-0.21-1.06-0.31-1.69-0.31c-0.86,0-1.66,0.15-2.38,0.43c-0.72,0.28-1.4,0.72-2.01,1.3
					l-0.08,0.07l0.43,0.75c0.07,0.12,0.17,0.22,0.28,0.31c0.27,0.21,0.69,0.19,1.04-0.05c0.17-0.11,0.36-0.23,0.58-0.37
					c0.21-0.13,0.47-0.25,0.78-0.36c0.29-0.11,0.66-0.16,1.1-0.16c0.63,0,1.11,0.19,1.44,0.55c0.2,0.23,0.38,0.47,0.42,0.98v1.38
					c-1.15,0.04-2.14,0.15-2.94,0.33c-0.85,0.2-1.56,0.46-2.09,0.77c-0.54,0.32-0.94,0.68-1.18,1.09c-0.24,0.41-0.37,0.84-0.37,1.28
					c0,0.49,0.08,0.93,0.25,1.3c0.17,0.37,0.4,0.69,0.69,0.94c0.29,0.25,0.63,0.44,1.02,0.56c0.38,0.12,0.8,0.18,1.24,0.18
					c0.41,0,0.79-0.04,1.14-0.11c0.35-0.07,0.67-0.18,0.97-0.32c0.3-0.14,0.59-0.31,0.87-0.5c0.13-0.09,0.26-0.2,0.39-0.3v1.21h2.36
					l0.01-7.07c0-0.04,0-0.07-0.01-0.11C164.59,65.28,164.59,65.26,164.59,65.24z M162.23,67.62v1.96c-0.19,0.2-0.36,0.34-0.51,0.46
					c-0.21,0.16-0.42,0.3-0.65,0.41c-0.22,0.11-0.47,0.2-0.72,0.26c-0.45,0.11-1.04,0.13-1.49,0.01c-0.19-0.05-0.35-0.13-0.49-0.24
					c-0.14-0.11-0.25-0.25-0.32-0.42c-0.08-0.18-0.12-0.38-0.12-0.63c0-0.25,0.07-0.48,0.22-0.68c0.15-0.21,0.4-0.39,0.75-0.55
					c0.35-0.16,0.83-0.29,1.41-0.39C160.83,67.71,161.48,67.65,162.23,67.62z"/>
				<path class="st0" d="M134.13,64.73c0,1.16-0.18,2.22-0.55,3.17c-0.37,0.95-0.88,1.77-1.55,2.45c-0.67,0.68-1.47,1.21-2.39,1.59
					s-1.96,0.56-3.1,0.56h-5.75V56.96h5.75c1.14,0,2.17,0.19,3.1,0.56c0.93,0.38,1.73,0.9,2.39,1.59c0.67,0.68,1.18,1.5,1.55,2.46
					C133.95,62.52,134.13,63.58,134.13,64.73z M131.81,64.73c0-0.92-0.12-1.75-0.37-2.48c-0.25-0.73-0.6-1.35-1.06-1.86
					c-0.46-0.51-1.01-0.9-1.66-1.16c-0.65-0.27-1.37-0.4-2.18-0.4h-3.47v11.82h3.47c0.8,0,1.53-0.13,2.18-0.4
					c0.65-0.27,1.2-0.66,1.66-1.16c0.46-0.51,0.81-1.13,1.06-1.86C131.69,66.49,131.81,65.66,131.81,64.73z"/>
				<path class="st0" d="M154.35,67.79c-0.17-0.32-0.41-0.59-0.69-0.82c-0.28-0.22-0.6-0.41-0.96-0.56
					c-0.35-0.14-0.71-0.28-1.07-0.39c-0.36-0.11-0.72-0.22-1.06-0.32c-0.33-0.1-0.64-0.21-0.91-0.34c-0.25-0.12-0.46-0.26-0.62-0.42
					c-0.14-0.15-0.21-0.34-0.21-0.57c0-0.18,0.04-0.35,0.13-0.51c0.09-0.16,0.21-0.3,0.37-0.42c0.16-0.12,0.37-0.22,0.61-0.28
					c0.24-0.07,0.52-0.11,0.81-0.11c0.37,0,0.68,0.04,0.94,0.11c0.28,0.08,0.51,0.16,0.7,0.25c0.2,0.09,0.37,0.17,0.52,0.25
					c0.32,0.17,0.61,0.16,0.79,0.06c0.09-0.05,0.16-0.13,0.24-0.24l0.54-0.85l-0.08-0.08c-0.44-0.4-0.98-0.73-1.6-0.96
					c-0.62-0.23-1.32-0.35-2.09-0.35c-0.67,0-1.27,0.09-1.79,0.27c-0.52,0.18-0.97,0.42-1.33,0.72c-0.36,0.3-0.64,0.66-0.83,1.05
					c-0.19,0.4-0.29,0.82-0.29,1.25c0,0.49,0.09,0.9,0.27,1.25c0.18,0.34,0.41,0.63,0.69,0.87c0.28,0.23,0.61,0.43,0.97,0.58
					c0.35,0.15,0.72,0.28,1.09,0.4c0.37,0.11,0.72,0.22,1.07,0.32c0.34,0.1,0.64,0.21,0.91,0.34c0.25,0.13,0.46,0.28,0.62,0.45
					c0.14,0.16,0.22,0.37,0.22,0.61c0,0.2-0.04,0.39-0.12,0.57c-0.08,0.18-0.2,0.34-0.37,0.47c-0.17,0.14-0.38,0.25-0.64,0.33
					c-0.26,0.08-0.57,0.13-0.93,0.13c-0.43,0-0.79-0.05-1.07-0.14c-0.29-0.09-0.53-0.19-0.73-0.3c-0.2-0.11-0.38-0.22-0.53-0.32
					c-0.35-0.23-0.73-0.2-0.94-0.07c-0.11,0.06-0.2,0.16-0.27,0.27l-0.58,0.89l0.09,0.08c0.46,0.39,1.03,0.71,1.71,0.97
					c0.67,0.25,1.42,0.38,2.21,0.38c0.71,0,1.35-0.09,1.91-0.27c0.56-0.18,1.04-0.44,1.41-0.76c0.39-0.32,0.68-0.71,0.87-1.15
					c0.2-0.44,0.3-0.93,0.3-1.44C154.62,68.5,154.53,68.11,154.35,67.79z"/>
				<path class="st0" d="M143.79,62.5c-0.42-0.42-0.91-0.74-1.48-0.96c-0.56-0.22-1.19-0.33-1.85-0.33c-0.79,0-1.52,0.14-2.16,0.42
					c-0.64,0.28-1.19,0.67-1.63,1.16c-0.44,0.49-0.79,1.07-1.02,1.73c-0.24,0.66-0.36,1.37-0.36,2.12c0,0.94,0.13,1.78,0.39,2.51
					c0.26,0.73,0.63,1.34,1.1,1.84c0.47,0.49,1.04,0.87,1.68,1.13c0.64,0.25,1.34,0.38,2.1,0.38c0.39,0,0.8-0.03,1.2-0.1
					c0.4-0.06,0.8-0.17,1.18-0.3c0.38-0.14,0.74-0.32,1.08-0.54c0.33-0.21,0.63-0.47,0.89-0.77l0.06-0.07l-0.92-1.56l-0.12,0.13
					c-0.6,0.61-1.57,0.99-1.94,1.13l-0.1,0.04c-0.32,0.1-0.71,0.15-1.14,0.15c-0.47,0-0.89-0.08-1.27-0.22
					c-0.37-0.15-0.7-0.37-0.97-0.67c-0.27-0.3-0.49-0.68-0.64-1.14c-0.14-0.42-0.23-0.93-0.26-1.49h6.88c0.24,0,0.41-0.08,0.5-0.22
					c0.09-0.14,0.13-0.36,0.13-0.71c0-0.77-0.12-1.48-0.35-2.09C144.53,63.44,144.2,62.92,143.79,62.5z M142.99,65.53h-5.31
					c0.14-0.78,0.44-1.4,0.88-1.85c0.47-0.47,1.12-0.71,1.94-0.71c0.4,0,0.76,0.07,1.06,0.2c0.3,0.13,0.57,0.32,0.78,0.56
					c0.22,0.24,0.37,0.52,0.48,0.85C142.93,64.87,142.98,65.19,142.99,65.53z"/>
				<path class="st0" d="M209.26,62.74c-0.46-0.49-1.03-0.88-1.69-1.14c-0.66-0.26-1.4-0.39-2.21-0.39c-0.82,0-1.56,0.13-2.22,0.39
					c-0.66,0.26-1.23,0.65-1.7,1.14c-0.47,0.49-0.83,1.1-1.08,1.79c-0.25,0.69-0.38,1.48-0.38,2.33c0,0.86,0.13,1.64,0.38,2.34
					c0.25,0.69,0.61,1.3,1.08,1.79c0.47,0.49,1.04,0.87,1.7,1.14c0.66,0.26,1.4,0.39,2.22,0.39c0.81,0,1.55-0.13,2.21-0.39
					c0.66-0.26,1.23-0.65,1.69-1.14c0.46-0.49,0.82-1.09,1.07-1.79c0.25-0.69,0.37-1.48,0.37-2.34c0-0.85-0.13-1.64-0.37-2.33
					C210.08,63.83,209.72,63.23,209.26,62.74z M208.28,66.87c0,1.2-0.25,2.14-0.73,2.8c-0.48,0.65-1.2,0.97-2.18,0.97
					c-1,0-1.73-0.32-2.21-0.97c-0.49-0.65-0.74-1.6-0.74-2.8c0-1.2,0.25-2.15,0.74-2.81c0.49-0.66,1.21-0.97,2.21-0.97
					c0.97,0,1.71,0.33,2.18,0.97C208.03,64.72,208.28,65.66,208.28,66.87z"/>
				<path class="st0" d="M189.8,62.74c-0.46-0.49-1.03-0.88-1.69-1.14c-0.66-0.26-1.4-0.39-2.21-0.39c-0.82,0-1.56,0.13-2.22,0.39
					c-0.66,0.26-1.23,0.65-1.7,1.14c-0.47,0.49-0.83,1.1-1.08,1.79c-0.25,0.69-0.38,1.48-0.38,2.33c0,0.86,0.13,1.64,0.38,2.34
					c0.25,0.69,0.61,1.3,1.08,1.79c0.47,0.49,1.04,0.87,1.7,1.14c0.66,0.26,1.4,0.39,2.22,0.39c0.81,0,1.55-0.13,2.21-0.39
					c0.66-0.26,1.23-0.65,1.69-1.14c0.46-0.49,0.82-1.09,1.07-1.79c0.25-0.69,0.37-1.48,0.37-2.34c0-0.85-0.13-1.64-0.37-2.33
					C190.62,63.83,190.26,63.23,189.8,62.74z M188.82,66.87c0,1.2-0.25,2.14-0.73,2.8c-0.48,0.65-1.2,0.97-2.18,0.97
					c-1,0-1.73-0.32-2.21-0.97c-0.49-0.65-0.74-1.6-0.74-2.8c0-1.2,0.25-2.15,0.74-2.81c0.49-0.66,1.21-0.97,2.21-0.97
					c0.97,0,1.71,0.33,2.18,0.97C188.57,64.72,188.82,65.66,188.82,66.87z"/>
				<path class="st0" d="M179.82,61.38c-0.06-0.03-0.12-0.06-0.2-0.08c-0.22-0.06-0.46-0.08-0.7-0.08c-0.72,0-1.34,0.21-1.86,0.64
					c-0.34,0.28-0.64,0.64-0.93,1.09V61.2h-2.36v11.15l0.02,0.13h2.35v-6.61c0.02-0.35,0.27-0.88,0.42-1.14
					c0.15-0.26,0.32-0.48,0.51-0.66c0.19-0.17,0.4-0.31,0.64-0.4c0.24-0.09,0.52-0.13,0.84-0.13c0.22,0,0.42,0.02,0.61,0.06
					c0.38,0.08,0.56,0.1,0.75-0.03l0.06-0.04v-2.07l-0.08-0.03C179.87,61.41,179.84,61.4,179.82,61.38z"/>
				<path class="st0" d="M172.44,61.38c-0.06-0.03-0.12-0.06-0.2-0.08c-0.22-0.06-0.46-0.08-0.7-0.08c-0.72,0-1.34,0.21-1.85,0.64
					c-0.34,0.28-0.64,0.64-0.93,1.09V61.2h-2.36v11.15l0.02,0.13h2.35v-6.61c0.02-0.35,0.27-0.88,0.42-1.14
					c0.15-0.26,0.32-0.48,0.51-0.66c0.19-0.17,0.4-0.31,0.64-0.4c0.24-0.09,0.52-0.13,0.84-0.13c0.22,0,0.42,0.02,0.61,0.06
					c0.38,0.08,0.56,0.1,0.75-0.03l0.06-0.04v-2.07l-0.08-0.03C172.49,61.41,172.47,61.4,172.44,61.38z"/>
				<g>
					<polygon class="st0" points="192.69,72.48 194.99,72.48 194.99,62.49 194.99,56.89 192.69,56.89 					"/>
					<polygon class="st0" points="196.41,72.48 198.7,72.48 198.7,62.49 198.7,56.89 196.41,56.89 					"/>
				</g>
			</g>
		</g>
		<g>
			<g>
				<rect x="164.86" y="29.61" class="st1" width="7.06" height="21.97"/>
				<g>
					<rect x="164.86" y="22.68" class="st0" width="7.06" height="6.94"/>
				</g>
				<polygon class="st1" points="127.44,37.14 136.43,51.56 145.42,51.56 154.46,37.03 154.46,51.57 161.52,51.57 161.52,22.68 
					154.46,22.68 154.4,22.68 140.91,44.36 127.44,22.72 127.44,22.68 127.41,22.68 120.38,22.68 120.38,25.81 120.38,25.81 
					120.38,51.57 127.44,51.57 				"/>
				<polygon class="st1" points="307.98,51.58 334.97,51.58 339.36,44.52 312.36,44.52 312.36,22.68 305.3,22.68 305.3,51.57 
					307.98,51.57 				"/>
				<polygon class="st1" points="266.43,22.68 266.2,22.68 266.2,51.57 266.43,51.57 266.43,51.58 301.71,51.58 301.71,44.52 
					273.26,44.52 273.26,40.52 292.95,40.52 292.95,33.47 273.26,33.47 273.26,29.61 301.71,29.61 301.71,22.56 266.43,22.56 				
					"/>
				<path class="st1" d="M261.96,37.21V22.68h-7.07v2.06v12.47c0,4.13-3.36,7.5-7.5,7.5h-12.12c-4.13,0-7.5-3.36-7.5-7.5V24.74
					v-2.06h-7.1c-0.04,4.75-0.09,13.34,0.03,14.53c0,8.03,6.54,14.57,14.57,14.57h12.12C255.42,51.78,261.96,45.25,261.96,37.21z"/>
				<path class="st1" d="M190.07,51.78h12.12c2.76,0,5.34-0.79,7.54-2.13v1.92h7.06V40.52v-5.54v-1.51h-0.54h-7.58h-12.43v7.06
					h12.66c-1.23,2.47-3.77,4.18-6.72,4.18h-12.12c-4.13,0-7.5-3.36-7.5-7.5s3.36-7.5,7.5-7.5h8.53l4.4-7.07h-12.93
					c-8.03,0-14.57,6.54-14.57,14.57S182.04,51.78,190.07,51.78z"/>
			</g>
			<g>
				<g>
					<polygon class="st1" points="500.49,22.3 500.49,26.66 500.49,47.23 500.49,48.32 500.49,51.6 520.94,51.6 520.94,47.23 
						504.86,47.23 504.86,41.28 520.91,41.28 520.91,36.91 504.86,36.91 504.86,26.66 520.94,26.66 520.94,22.29 500.49,22.29 					
						"/>
					<path class="st1" d="M496.56,31.78c0-5.24-4.27-9.51-9.51-9.51H470.5v0.03h-3.75v29.29h4.37v-10.3h14.48l6.45,10.36h4.52
						l-6.71-10.78C493.73,39.67,496.56,36.05,496.56,31.78z M471.11,26.67h15.93c2.82,0,5.12,2.3,5.12,5.12s-2.29,5.12-5.12,5.12
						h-15.93V26.67z"/>
					<path class="st1" d="M362.85,22.28h-0.02h-5.01h-0.02l-0.06,0.1L339.55,51.6h5.03l6.29-10.1h18.91l6.29,10.1h5.03l-18.19-29.22
						L362.85,22.28z M353.59,37.12l6.74-10.82l6.74,10.82H353.59z"/>
					<polygon class="st1" points="552.31,22.28 547.28,22.28 547.27,22.29 524.7,22.29 524.7,26.66 544.55,26.66 529.03,51.6 
						532.26,51.6 534.06,51.6 556.55,51.6 556.55,47.23 536.78,47.23 					"/>
					<path class="st1" d="M445.21,22.28h-0.02h-5.01h-0.02l-0.06,0.1L421.91,51.6h5.03l6.29-10.1h18.91l6.29,10.1h5.03l-18.19-29.22
						L445.21,22.28z M435.94,37.12l6.74-10.82l6.74,10.82H435.94z"/>
					<polygon class="st1" points="430.12,22.28 414.38,47.58 398.63,22.28 393.6,22.28 411.79,51.5 411.85,51.6 411.87,51.6 
						416.88,51.6 416.9,51.6 416.97,51.5 435.15,22.28 					"/>
					<polygon class="st1" points="404.07,47.23 388.47,47.23 388.47,22.3 384.1,22.3 384.1,47.23 384.1,47.23 384.1,51.6 
						406.79,51.6 406.72,51.5 					"/>
				</g>
				<polygon class="st0" points="361.91,14.1 358.49,19.59 363.35,19.59 366.77,14.1 				"/>
			</g>
		</g>
	</g>
	<g>
		<g>
			<path class="st0" d="M49.03,35.72l-7.57,12.16l7.57,12.2l14.31,0.04l7.6-12.25l-7.6-12.21L49.03,35.72z M64.45,52.83l-0.01,0.02
				c-1.71,2.76-4.73,4.44-7.98,4.43l-0.57,0c-3.23-0.01-6.22-1.68-7.93-4.43l-0.01-0.02c-1.88-3.03-1.88-6.86,0.01-9.88l0,0
				c1.7-2.74,4.7-4.41,7.92-4.41l0.59,0c3.24-0.01,6.26,1.66,7.98,4.41l0,0C66.33,45.97,66.33,49.8,64.45,52.83z"/>
		</g>
		<path class="st0" d="M54.91,24.07c0.73,0,1.44-0.11,2.1-0.31l4.05,6.53H34.94c-1.27-3.18-4.69-5.28-8.47-4.49
			c-2.75,0.58-4.99,2.77-5.61,5.52c-0.5,2.2-0.01,4.28,1.1,5.9L8.63,58.63L1.94,47.87l17.78-28.65l28.24-0.04
			C48.98,22.03,51.7,24.07,54.91,24.07z"/>
		<path class="st1" d="M75.49,31.53c0-1.87,0.7-3.58,1.85-4.89L62.37,2.73h-32.2l-7,11.1h24.87c1.11-2.71,3.77-4.61,6.88-4.61
			c4.11,0,7.43,3.33,7.43,7.43c0,1.8-0.64,3.44-1.7,4.73l13.26,21.31l3.71-5.96C76.31,35.39,75.49,33.55,75.49,31.53z"/>
		<path class="st0" d="M82.37,2.73L68.79,2.67l13.39,21.49c0.24-0.02,0.49-0.03,0.73-0.03c0,0,0,0,0,0s0,0,0,0
			c0.19,0,0.39,0.01,0.58,0.03c3.83,0.3,6.85,3.5,6.85,7.4c0,4.11-3.33,7.43-7.43,7.43c-0.11,0-0.22-0.01-0.33-0.02L69.54,60.16h8.3
			c1.03-2.85,3.75-4.9,6.96-4.9c0.39,0,0.77,0.04,1.15,0.1l14.61-23.41L82.37,2.73z"/>
		<path class="st1" d="M103.76,37.1l-13.09,21c1,1.26,1.59,2.86,1.59,4.59c0,4.11-3.33,7.43-7.43,7.43c-3.14,0-5.82-1.95-6.91-4.7
			h-26.6l4.07,6.55c0.68-0.2,1.39-0.31,2.13-0.31c3.2,0,5.92,2.03,6.95,4.88l28.2-0.04l17.78-28.65L103.76,37.1z"/>
		<path class="st1" d="M29.81,70.93c-0.23,0.02-0.45,0.03-0.68,0.03c-4.11,0-7.43-3.33-7.43-7.43s3.33-7.43,7.43-7.43
			c0.35,0,0.69,0.03,1.03,0.08l12.7-20.61h-7.83c-1.03,2.85-3.75,4.88-6.95,4.88c-0.54,0-1.06-0.06-1.57-0.17l-14.67,23.5
			l18.19,29.22l13.58,0.06L29.81,70.93z"/>
		<path class="st0" d="M64.38,81.9c-1.1,2.72-3.77,4.64-6.89,4.64c-4.11,0-7.43-3.33-7.43-7.43c0-1.8,0.64-3.44,1.7-4.73
			L38.48,53.04l-3.6,5.79c1.05,1.28,1.69,2.92,1.69,4.7c0,1.9-0.72,3.63-1.9,4.94L50.02,93h32.2l7-11.1H64.38z"/>
	</g>
</g>
</svg>
